<?xml version="1.0" encoding="utf-8"?>
<!-- Generator: Adobe Illustrator 24.0.0, SVG Export Plug-In . SVG Version: 6.00 Build 0)  -->
<svg version="1.1" id="Layer_1" xmlns="http://www.w3.org/2000/svg" xmlns:xlink="http://www.w3.org/1999/xlink" x="0px" y="0px"
	 viewBox="0 0 500 500" style="enable-background:new 0 0 500 500;" xml:space="preserve">
<style type="text/css">
	.st0{fill:#00005B;}
	.st1{fill:#9999FF;}
</style>
<g transform="matrix(1.000000125 0 0 1.000000125 159.9999625 83)">
	<path class="st0" d="M-66.3-69h312.6c47.4,0,85.7,38.3,85.7,85.7v300.5c0,47.4-38.3,85.7-85.7,85.7H-66.3
		c-47.4,0-85.7-38.3-85.7-85.7V16.8C-152-30.6-113.7-69-66.3-69z"/>
	<g>
		<path class="st1" d="M-37.1,262V54.5c0-1.4,0.6-2.2,2-2.2c3.4,0,6.7,0,11.3-0.2c4.8-0.2,9.9-0.2,15.3-0.4s11.3-0.2,17.5-0.4
			S21.4,51,27.5,51c16.5,0,30.3,2,41.5,6.3c10.1,3.4,19.4,9.1,27,16.5c6.5,6.5,11.5,14.3,14.7,23c3,8.5,4.6,17.1,4.6,26.2
			c0,17.3-4,31.7-12.1,43s-19.4,19.8-32.5,24.6c-13.7,5-28.8,6.9-45.4,6.9c-4.8,0-8.1,0-10.1-0.2c-2-0.2-4.8-0.2-8.7-0.2v64.7
			c0.2,1.4-0.8,2.6-2.2,2.8h-39.1C-36.2,264.6-37.1,263.8-37.1,262L-37.1,262z M6.9,91.2v67.8c2.8,0.2,5.4,0.4,7.9,0.4h10.7
			c7.9,0,15.7-1.2,23.2-3.6c6.5-1.8,12.1-5.6,16.5-10.7c4.2-5,6.3-11.9,6.3-20.8c0.2-6.3-1.4-12.5-4.6-17.9
			c-3.4-5.2-8.3-9.3-14.1-11.5c-7.5-3-15.5-4.2-23.8-4c-5.2,0-9.9,0-13.7,0.2C11.1,90.8,8.3,91,6.9,91.2L6.9,91.2z"/>
		<path class="st1" d="M143.6,102.9h35.3c2,0,3.6,1.4,4.2,3.2c0.6,1.6,1,3.2,1.2,5c0.4,2,0.8,4.2,1,6.3c0.2,2.2,0.4,4.6,0.4,7.3
			c6-7.1,13.3-12.9,21.6-17.3c9.3-5.2,20-7.9,30.7-7.9c1.4-0.2,2.6,0.8,2.8,2.2v40.1c0,1.6-1,2.2-3.2,2.2c-7.3-0.2-14.7,0.4-21.8,2
			c-5.8,1.2-11.5,3-16.9,5.4c-3.8,1.8-7.5,4.2-10.3,7.5v102.9c0,2-0.8,2.8-2.6,2.8h-39.7c-1.6,0.2-3-0.8-3.2-2.4V149.7
			c0-4.8,0-9.9-0.2-15.1s-0.2-10.5-0.4-15.7c0-4.6-0.4-9.1-0.8-13.7c-0.2-1,0.4-2,1.4-2.2C143,102.7,143.4,102.7,143.6,102.9
			L143.6,102.9z"/>
	</g>
</g>
</svg>
