<?xml version="1.0" encoding="utf-8"?>
<!-- Generator: Adobe Illustrator 24.0.0, SVG Export Plug-In . SVG Version: 6.00 Build 0)  -->
<svg version="1.1" id="Layer_1" xmlns="http://www.w3.org/2000/svg" xmlns:xlink="http://www.w3.org/1999/xlink" x="0px" y="0px"
	 viewBox="0 0 688 688" style="enable-background:new 0 0 688 688;" xml:space="preserve">
<style type="text/css">
	.st0{fill:#001E36;}
	.st1{fill:#31A8FF;}
</style>
<g id="Layer_2_1_">
	<g id="Surfaces">
		<g id="Photo_Surface">
			<g id="Outline_no_shadow">
				<path class="st0" d="M125.1,13.5h437.9c66.4,0,120.1,53.7,120.1,120.1v420.9c0,66.4-53.7,120.1-120.1,120.1H125.1
					C58.7,674.5,5,620.9,5,554.5V133.5C5,67.1,58.7,13.5,125.1,13.5z"/>
			</g>
		</g>
	</g>
	<g id="Outlined_Mnemonics_Logos">
		<g id="Ps">
			<path class="st1" d="M157.6,477.1V186.4c0-2,0.8-3.1,2.8-3.1c4.8,0,9.3,0,15.8-0.3c6.8-0.3,13.8-0.3,21.5-0.6
				c7.6-0.3,15.8-0.3,24.6-0.6c8.8-0.3,17.2-0.3,25.7-0.3c23.2,0,42.4,2.8,58.2,8.8c14.1,4.8,27.1,12.7,37.8,23.2
				c9,9,16.1,20.1,20.6,32.2c4.2,11.9,6.5,24,6.5,36.7c0,24.3-5.6,44.4-17,60.2c-11.3,15.8-27.1,27.7-45.5,34.5
				c-19.2,7.1-40.4,9.6-63.6,9.6c-6.8,0-11.3,0-14.1-0.3c-2.8-0.3-6.8-0.3-12.1-0.3v90.7c0.3,2-1.1,3.7-3.1,3.9c-0.3,0-0.6,0-1.1,0
				h-53.7C158.7,480.7,157.6,479.6,157.6,477.1z M219.1,237.8v94.9c4,0.3,7.6,0.6,11,0.6h15c11,0,22-1.7,32.5-5.1
				c9-2.5,16.9-7.9,23.2-15c5.9-7.1,8.8-16.7,8.8-29.1c0.3-8.8-2-17.5-6.5-25.1c-4.8-7.4-11.6-13-19.8-16.1
				c-10.5-4.2-21.8-5.9-33.3-5.6c-7.4,0-13.8,0-19.2,0.3C225.1,237.2,221.1,237.5,219.1,237.8L219.1,237.8z"/>
			<path class="st1" d="M547.4,315.5c-8.5-4.5-17.5-7.6-27.1-9.6c-10.5-2.3-20.9-3.7-31.6-3.7c-5.7-0.3-11.6,0.6-17,2
				c-3.7,0.8-6.8,2.8-8.8,5.6c-1.4,2.3-2.3,5.1-2.3,7.6c0,2.5,1.1,5.1,2.8,7.4c2.5,3.1,5.9,5.6,9.6,7.6c6.5,3.4,13.3,6.5,20.1,9.3
				c15.2,5.1,30,12.1,43.5,20.6c9.3,5.9,17,13.8,22.3,23.4c4.5,9,6.8,18.9,6.5,29.1c0.3,13.3-3.7,26.5-11,37.6
				c-7.9,11.3-18.9,20.1-31.6,25.1c-13.8,5.9-30.8,9-51.1,9c-13,0-25.7-1.1-38.4-3.7c-9.9-1.7-19.8-4.8-28.8-9
				c-2-1.1-3.4-3.1-3.1-5.4v-49.1c0-0.8,0.3-2,1.1-2.5c0.8-0.6,1.7-0.3,2.5,0.3c11,6.5,22.6,11,35,13.8c10.7,2.8,22,4.2,33.3,4.2
				c10.7,0,18.4-1.4,23.4-3.9c4.5-2,7.6-6.8,7.6-11.9c0-3.9-2.3-7.6-6.8-11.3c-4.5-3.7-13.8-7.9-27.7-13.3
				c-14.4-5.1-27.7-11.9-40.1-20.3c-8.8-6.2-16.1-14.4-21.5-24c-4.5-9-6.8-18.9-6.5-28.8c0-12.1,3.4-23.7,9.6-34.2
				c7.1-11.3,17.5-20.3,29.7-26c13.3-6.8,30-9.9,50-9.9c11.6,0,23.4,0.8,35,2.5c8.5,1.1,16.7,3.4,24.3,6.5c1.1,0.3,2.3,1.4,2.8,2.5
				c0.3,1.1,0.6,2.3,0.6,3.4v46c0,1.1-0.6,2.3-1.4,2.8C549.9,316,548.5,316,547.4,315.5z"/>
		</g>
	</g>
</g>
</svg>
